<?xml version="1.0" encoding="UTF-8"?>
<svg id="Layer_1" data-name="Layer 1" xmlns="http://www.w3.org/2000/svg" viewBox="0 0 757.31 575.74">
  <defs>
    <style>
      .cls-1 {
        stroke: #231f20;
        stroke-miterlimit: 10;
        stroke-width: 5px;
      }

      .cls-1, .cls-2 {
        fill: #fff;
      }

      .cls-2 {
        stroke-width: 0px;
      }
    </style>
  </defs>
  <ellipse class="cls-1" cx="384.27" cy="480.92" rx="271.46" ry="69.14"/>
  <rect class="cls-2" x="294.65" y="263.08" width="179.92" height="173.54"/>
  <path class="cls-1" d="m336.74,280.03l-75.31-71.88s-25-25-48.44,0,9.37,46.88,9.37,46.88l71.87,68.75,3.12,96.88"/>
  <path class="cls-1" d="m24.47,426.46c27.49-14.23,77.5-35.15,142.15-35.08,118.49.14,197.93,70.73,217.85,89.54,0,0-125.54-30.92-205.85-30.46-80.31.46-144,30.46-144,30.46l4.62,15.69-10.15,13.85,17.54,14.77-15.69,6.46,12,12.92h341.69"/>
  <polygon class="cls-1" points="42.93 544.62 2.5 544.62 2.5 573.23 754.81 569.54 754.81 544.62 725.27 544.62 42.93 544.62"/>
  <line class="cls-1" x1="384.47" y1="480.92" x2="384.62" y2="544.62"/>
  <path class="cls-1" d="m384.62,65.54V0"/>
  <path class="cls-1" d="m270.65,88.71c-15.45-15.45-30.9-30.9-46.34-46.34"/>
  <path class="cls-1" d="m476.54,88.71c15.45-15.45,30.9-30.9,46.34-46.34"/>
  <path class="cls-1" d="m224.3,158.77h-65.54"/>
  <path class="cls-1" d="m588.42,158.77h-65.54"/>
  <path class="cls-1" d="m433.61,280.03l75.31-71.88s25-25,48.44,0-9.38,46.88-9.38,46.88l-71.88,68.75-3.12,96.88"/>
  <circle class="cls-1" cx="383.58" cy="219.52" r="78.02"/>
  <path class="cls-1" d="m743.73,426.46c-27.49-14.23-77.5-35.15-142.15-35.08-118.49.14-197.93,70.73-217.85,89.54,0,0,125.54-30.92,205.85-30.46s144,30.46,144,30.46l-4.62,15.69,10.15,13.85-17.54,14.77,15.69,6.46-12,12.92h-341.69"/>
</svg>